<svg xmlns="http://www.w3.org/2000/svg" width="760" height="390" viewBox="0 0 760 390">
<rect width="100%" height="100%" fill="#ffffff"/>
<style>text{font-family:Arial,sans-serif;fill:#1f2937}.title{font-size:20px;font-weight:700}.label{font-size:14px}.value{font-size:14px;font-weight:700}.axis{font-size:12px;fill:#4b5563}</style>
<text x="28" y="36" class="title">P26-002 co-primary power sensitivity</text>
<text x="28" y="60" class="axis">Exact binomial sensitivity under transported planning probabilities</text>
<line x1="250.0" y1="86" x2="250.0" y2="326" stroke="#e5e7eb"/>
<text x="250.0" y="346" text-anchor="middle" class="axis">0.0</text>
<line x1="340.0" y1="86" x2="340.0" y2="326" stroke="#e5e7eb"/>
<text x="340.0" y="346" text-anchor="middle" class="axis">0.2</text>
<line x1="430.0" y1="86" x2="430.0" y2="326" stroke="#e5e7eb"/>
<text x="430.0" y="346" text-anchor="middle" class="axis">0.4</text>
<line x1="520.0" y1="86" x2="520.0" y2="326" stroke="#e5e7eb"/>
<text x="520.0" y="346" text-anchor="middle" class="axis">0.6</text>
<line x1="610.0" y1="86" x2="610.0" y2="326" stroke="#e5e7eb"/>
<text x="610.0" y="346" text-anchor="middle" class="axis">0.8</text>
<line x1="700.0" y1="86" x2="700.0" y2="326" stroke="#e5e7eb"/>
<text x="700.0" y="346" text-anchor="middle" class="axis">1.0</text>
<text x="28" y="124" class="label">task clusters (n=112)</text>
<rect x="250" y="102" width="155.8" height="34" rx="4" fill="#5875d1"/>
<text x="413.8" y="124" class="value">0.346</text>
<text x="28" y="180" class="label">design boundary (n=181)</text>
<rect x="250" y="158" width="369.2" height="34" rx="4" fill="#c1645a"/>
<text x="627.2" y="180" class="value">0.821</text>
<text x="28" y="236" class="label">naive physical (n=281)</text>
<rect x="250" y="214" width="430.3" height="34" rx="4" fill="#3c8d73"/>
<text x="688.3" y="236" class="value">0.956</text>
<line x1="610.0" y1="82" x2="610.0" y2="326" stroke="#111827" stroke-dasharray="5 4"/>
<text x="610.0" y="374" text-anchor="middle" class="axis">target 0.80</text>
</svg>
